<svg xmlns="http://www.w3.org/2000/svg" viewBox="0 0 32 32" fill="none">
  <rect width="32" height="32" rx="7" fill="#0A0A0A"/>
  <!-- Flame body -->
  <path d="M16 3C16 3 10 10 10 17C10 20 11.8 22.5 11.8 22.5C11.8 18.8 13.5 16.2 16 14C18.5 16.2 20.2 18.8 20.2 22.5C20.2 22.5 22 20 22 17C22 10 16 3 16 3Z" fill="#F5C800"/>
  <!-- Flame inner (orange tip) -->
  <path d="M12.5 21C12.5 24.6 14 27 16 27C18 27 19.5 24.6 19.5 21C19.5 19 18.4 17.2 17.2 16.5C17.2 18.8 16.6 20.2 16 21C15.4 20.2 14.8 18.8 14.8 16.5C13.6 17.2 12.5 19 12.5 21Z" fill="#F97316"/>
</svg>
